<?xml version="1.0" standalone="no"?>
<!DOCTYPE svg PUBLIC "-//W3C//DTD SVG 20010904//EN"
 "http://www.w3.org/TR/2001/REC-SVG-20010904/DTD/svg10.dtd">
<svg version="1.0" xmlns="http://www.w3.org/2000/svg"
 width="200.000000pt" height="200.000000pt" viewBox="0 0 200.000000 200.000000"
 preserveAspectRatio="xMidYMid meet">
<metadata>
Created by potrace 1.11, written by Peter Selinger 2001-2013
</metadata>
<g transform="translate(0.000000,200.000000) scale(0.100000,-0.100000)"
fill="#000000" stroke="none">
<path d="M540 1240 c0 -160 4 -250 10 -250 12 0 12 -15 12 238 0 118 1 212 2
210 2 -2 32 -57 66 -123 35 -66 73 -137 84 -157 18 -35 36 -49 36 -29 0 4 -20
46 -45 92 -24 46 -66 126 -92 177 -26 50 -54 92 -60 92 -10 0 -13 -56 -13
-250z"/>
<path d="M590 1485 c0 -2 8 -19 18 -37 11 -18 54 -99 96 -180 66 -126 96 -170
96 -142 0 9 -170 335 -183 352 -9 12 -27 17 -27 7z"/>
<path d="M640 1485 c0 -4 17 -39 39 -78 21 -40 64 -120 95 -179 32 -60 63
-108 69 -108 7 0 27 29 46 65 18 36 47 92 65 124 l31 59 -3 -190 c-3 -153 -1
-189 10 -186 10 4 14 50 15 204 3 233 3 236 11 206 4 -13 6 -111 6 -218 -1
-158 1 -194 12 -194 11 0 14 40 14 215 l0 215 128 0 c107 0 132 -3 158 -19 82
-50 62 -174 -32 -199 -16 -5 -57 -7 -91 -6 -44 1 -63 -2 -63 -11 0 -15 156
-13 186 3 96 51 97 189 2 238 -26 14 -61 18 -157 19 -76 1 -126 5 -128 11 -2
7 42 10 131 9 119 -2 139 -5 170 -24 54 -34 79 -82 74 -142 -10 -99 -76 -146
-202 -145 -55 1 -76 -3 -76 -11 0 -8 14 -13 38 -13 l38 0 23 -70 c12 -38 26
-70 32 -70 13 0 12 9 -10 76 -19 57 -19 83 -1 54 6 -8 17 -41 26 -72 9 -32 22
-58 29 -58 10 0 8 15 -6 61 -11 34 -22 66 -25 71 -4 6 -1 9 6 6 8 -2 23 -33
35 -68 12 -35 27 -66 33 -68 16 -5 16 -7 -12 76 -14 40 -21 72 -16 72 8 0 34
-63 54 -127 7 -22 26 -32 26 -15 0 5 -11 41 -25 82 l-25 73 24 22 c76 70 76
194 1 265 -42 39 -90 48 -260 49 l-160 0 -68 -127 c-71 -134 -86 -172 -68
-172 6 0 11 4 11 8 0 16 132 253 138 248 5 -6 -57 -136 -116 -245 l-30 -53
-60 113 c-33 63 -74 139 -90 169 -25 47 -52 75 -52 55z"/>
<path d="M923 1478 c-26 -33 -122 -231 -117 -240 5 -8 144 233 144 249 0 8
-19 2 -27 -9z"/>
<path d="M1070 1195 c0 -130 4 -205 10 -205 12 0 11 -17 11 208 l0 182 94 0
c107 0 140 -9 151 -42 23 -68 -12 -98 -112 -98 -53 0 -74 -4 -74 -12 0 -9 17
-12 57 -11 32 1 68 2 80 2 31 1 73 41 79 74 6 36 -20 85 -52 97 -14 6 -75 10
-135 10 l-109 0 0 -205z"/>
<path d="M583 1180 c0 -168 5 -218 19 -177 10 27 2 347 -8 357 -8 8 -11 -43
-11 -180z"/>
<path d="M1117 1353 c-2 -5 -4 -88 -4 -186 0 -124 3 -177 11 -174 7 2 11 60
12 168 1 90 2 167 3 170 2 10 134 10 149 0 8 -5 12 -17 10 -27 -3 -16 -13 -19
-68 -21 -83 -2 -80 -1 -80 -13 0 -12 139 -13 159 -1 20 13 17 62 -5 78 -19 14
-179 19 -187 6z"/>
<path d="M625 1138 c0 -103 4 -143 13 -146 9 -3 12 27 12 126 0 125 -4 162
-19 162 -3 0 -6 -64 -6 -142z"/>
<path d="M947 1273 c-11 -11 -8 -283 3 -283 6 0 10 55 10 145 0 80 -1 145 -3
145 -2 0 -7 -3 -10 -7z"/>
<path d="M670 1098 c0 -66 4 -108 10 -108 13 0 13 180 0 200 -7 10 -10 -19
-10 -92z"/>
<path d="M903 1188 c-5 -7 -8 -51 -7 -98 3 -105 2 -100 14 -100 7 0 10 38 9
105 -1 58 -2 105 -4 105 -1 0 -7 -6 -12 -12z"/>
<path d="M100 723 c0 -206 1 -213 20 -213 23 0 22 -11 22 190 0 148 8 166 23
52 17 -136 22 -152 45 -152 23 0 28 8 35 51 3 19 12 68 19 109 l14 75 1 -162
1 -163 23 0 23 0 -1 210 c0 115 -2 211 -5 211 -3 1 -17 2 -32 3 -31 2 -27 16
-57 -169 -20 -126 -19 -127 -51 85 -6 41 -13 76 -16 79 -2 3 -18 5 -34 6 l-30
1 0 -213z"/>
<path d="M395 932 c-3 -3 -5 -99 -5 -214 l0 -208 24 0 c24 0 24 2 23 78 -1 62
1 77 13 77 10 0 21 -24 34 -77 17 -71 21 -78 43 -78 19 0 23 4 19 18 -3 9 -13
47 -22 84 -15 62 -15 70 0 92 14 23 21 80 17 148 -2 45 -39 77 -93 82 -26 2
-50 1 -53 -2z m93 -60 c12 -16 16 -91 6 -129 -6 -21 -40 -41 -51 -29 -3 3 -5
36 -5 73 0 113 0 113 20 106 9 -3 23 -13 30 -21z"/>
<path d="M769 922 c-1 -26 -1 -364 0 -389 1 -16 7 -23 21 -23 18 0 20 7 20 75
0 73 1 75 24 75 14 0 37 10 51 23 23 19 28 33 32 88 9 115 -17 157 -105 164
-34 2 -42 0 -43 -13z m98 -61 c11 -40 7 -130 -7 -146 -7 -8 -21 -15 -31 -15
-17 0 -19 9 -19 94 0 67 4 96 13 99 21 7 37 -4 44 -32z"/>
<path d="M969 936 c-1 -1 -3 -97 -4 -213 l-1 -213 68 0 c61 0 68 2 68 20 0 17
-7 20 -45 20 l-45 0 0 75 0 75 40 0 c33 0 40 3 40 20 0 17 -7 20 -42 20 l-43
0 5 77 5 78 40 0 c33 0 40 3 40 20 0 17 -7 20 -62 20 -35 1 -64 1 -64 1z"/>
<path d="M1159 921 c-1 -20 -1 -393 0 -403 1 -5 10 -8 21 -8 18 0 20 7 20 75
0 73 1 75 24 75 14 0 38 11 53 24 26 22 28 30 30 102 3 116 -18 144 -109 149
-29 1 -38 -2 -39 -14z m100 -66 c11 -39 4 -124 -11 -142 -6 -7 -19 -13 -28
-13 -16 0 -18 10 -19 91 0 50 1 95 4 99 11 18 45 -4 54 -35z"/>
<path d="M1359 936 c-1 0 -3 -97 -4 -213 l-2 -213 24 0 c22 0 23 3 23 75 0 71
1 75 23 75 31 0 63 24 75 57 5 16 8 59 6 97 -4 88 -26 116 -97 120 -26 2 -48
3 -48 2z m89 -64 c15 -19 16 -126 2 -153 -6 -10 -20 -19 -30 -19 -19 0 -20 7
-20 100 0 90 2 99 18 93 9 -3 23 -13 30 -21z"/>
<path d="M1550 723 l0 -213 70 0 c63 0 70 2 70 20 0 17 -7 20 -48 20 l-48 0 0
75 -1 74 41 3 c29 2 42 8 44 21 3 14 -4 17 -40 17 l-43 0 -1 75 c-1 49 3 75
10 76 6 1 22 3 36 4 14 1 31 3 38 4 13 1 17 30 5 32 -5 1 -36 2 -70 3 l-63 2
0 -213z"/>
<path d="M1748 937 c-1 -1 -2 -98 -3 -214 l-2 -213 24 0 c22 0 23 3 23 80 0
60 3 80 13 80 9 0 20 -29 32 -80 17 -73 20 -80 42 -80 19 0 23 4 19 18 -3 9
-12 47 -22 83 -15 62 -15 69 1 92 35 54 23 194 -18 216 -19 10 -104 24 -109
18z m80 -53 c19 -13 22 -24 22 -79 0 -65 -14 -95 -46 -95 -11 0 -14 19 -14 95
0 52 3 95 8 95 4 0 18 -7 30 -16z"/>
<path d="M590 540 c0 -22 5 -30 18 -30 26 0 30 6 24 35 -7 38 -42 34 -42 -5z"/>
</g>
</svg>
